<svg xmlns="http://www.w3.org/2000/svg" width="30" height="15.03" viewBox="0 0 30 15.03">
  <metadata><?xpacket begin="﻿" id="W5M0MpCehiHzreSzNTczkc9d"?>
<x:xmpmeta xmlns:x="adobe:ns:meta/" x:xmptk="Adobe XMP Core 5.6-c142 79.160924, 2017/07/13-01:06:39        ">
   <rdf:RDF xmlns:rdf="http://www.w3.org/1999/02/22-rdf-syntax-ns#">
      <rdf:Description rdf:about=""/>
   </rdf:RDF>
</x:xmpmeta>
                                                                                                    
                                                                                                    
                                                                                                    
                                                                                                    
                                                                                                    
                                                                                                    
                                                                                                    
                                                                                                    
                                                                                                    
                                                                                                    
                                                                                                    
                                                                                                    
                                                                                                    
                                                                                                    
                                                                                                    
                                                                                                    
                                                                                                    
                                                                                                    
                                                                                                    
                                                                                                    
                           
<?xpacket end="w"?></metadata>
<defs>
    <style>
      .cls-1 {
        fill: #149de6;
        fill-rule: evenodd;
      }
    </style>
  </defs>
  <path id="arrowlarge-right" class="cls-1" d="M724.1,2403.35H697.9a1.9,1.9,0,0,1-1.915-1.87h0a1.906,1.906,0,0,1,1.915-1.88H724.1a1.905,1.905,0,0,1,1.915,1.88h0A1.9,1.9,0,0,1,724.1,2403.35Zm-1.351-.55-5.755-5.63a1.85,1.85,0,0,1,0-2.65h0a1.948,1.948,0,0,1,2.708,0l5.755,5.63a1.85,1.85,0,0,1,0,2.65h0A1.948,1.948,0,0,1,722.745,2402.8Zm2.708,0-5.755,5.63a1.948,1.948,0,0,1-2.708,0h0a1.85,1.85,0,0,1,0-2.65l5.755-5.63a1.948,1.948,0,0,1,2.708,0h0A1.85,1.85,0,0,1,725.453,2402.8Z" transform="translate(-696 -2393.97)"/>
</svg>
