<svg xmlns="http://www.w3.org/2000/svg" width="30" height="15" viewBox="0 0 30 15">
  <metadata><?xpacket begin="﻿" id="W5M0MpCehiHzreSzNTczkc9d"?>
<x:xmpmeta xmlns:x="adobe:ns:meta/" x:xmptk="Adobe XMP Core 5.6-c142 79.160924, 2017/07/13-01:06:39        ">
   <rdf:RDF xmlns:rdf="http://www.w3.org/1999/02/22-rdf-syntax-ns#">
      <rdf:Description rdf:about=""/>
   </rdf:RDF>
</x:xmpmeta>
                                                                                                    
                                                                                                    
                                                                                                    
                                                                                                    
                                                                                                    
                                                                                                    
                                                                                                    
                                                                                                    
                                                                                                    
                                                                                                    
                                                                                                    
                                                                                                    
                                                                                                    
                                                                                                    
                                                                                                    
                                                                                                    
                                                                                                    
                                                                                                    
                                                                                                    
                                                                                                    
                           
<?xpacket end="w"?></metadata>
<defs>
    <style>
      .cls-1 {
        fill: #149de6;
        fill-rule: evenodd;
      }
    </style>
  </defs>
  <path id="arrowlarge-left" class="cls-1" d="M617.9,2403.36H644.1a1.9,1.9,0,0,0,1.915-1.87h0a1.9,1.9,0,0,0-1.915-1.87H617.9a1.9,1.9,0,0,0-1.916,1.87h0A1.9,1.9,0,0,0,617.9,2403.36Zm1.351-.54,5.755-5.62a1.85,1.85,0,0,0,0-2.65h0a1.948,1.948,0,0,0-2.708,0l-5.755,5.62a1.85,1.85,0,0,0,0,2.65h0A1.968,1.968,0,0,0,619.255,2402.82Zm-2.708-.01,5.755,5.62a1.948,1.948,0,0,0,2.708,0h0a1.839,1.839,0,0,0,0-2.64l-5.755-5.62a1.948,1.948,0,0,0-2.708,0h0A1.839,1.839,0,0,0,616.547,2402.81Z" transform="translate(-616 -2394)"/>
</svg>
