<svg xmlns="http://www.w3.org/2000/svg" width="41.842" height="36.407" viewBox="0 0 41.842 36.407">
  <metadata><?xpacket begin="﻿" id="W5M0MpCehiHzreSzNTczkc9d"?>
<x:xmpmeta xmlns:x="adobe:ns:meta/" x:xmptk="Adobe XMP Core 5.6-c142 79.160924, 2017/07/13-01:06:39        ">
   <rdf:RDF xmlns:rdf="http://www.w3.org/1999/02/22-rdf-syntax-ns#">
      <rdf:Description rdf:about=""/>
   </rdf:RDF>
</x:xmpmeta>
                                                                                                    
                                                                                                    
                                                                                                    
                                                                                                    
                                                                                                    
                                                                                                    
                                                                                                    
                                                                                                    
                                                                                                    
                                                                                                    
                                                                                                    
                                                                                                    
                                                                                                    
                                                                                                    
                                                                                                    
                                                                                                    
                                                                                                    
                                                                                                    
                                                                                                    
                                                                                                    
                           
<?xpacket end="w"?></metadata>
<defs>
    <style>
      .cls-1 {
        fill: #14b4f7;
        fill-rule: evenodd;
      }
    </style>
  </defs>
  <path id="bannrico05" class="cls-1" d="M1002.29,435.929a7.979,7.979,0,0,0,1.77-6.933,0.94,0.94,0,0,0-.45-0.573,7.064,7.064,0,0,0-6.459.131,7.584,7.584,0,0,0-3.879-5.362,0.878,0.878,0,0,0-.71-0.013,7.659,7.659,0,0,0-4.126,5.5,7.156,7.156,0,0,0-6.716-.257,0.937,0.937,0,0,0-.448.573,7.985,7.985,0,0,0,1.775,6.933c-4.786.862-5.374,2.117-5.374,3.015,0,1.345,1.5,2.245,4.864,2.916a61.447,61.447,0,0,0,20.263,0c3.36-.671,4.86-1.571,4.86-2.916C1007.66,438.046,1007.07,436.791,1002.29,435.929Zm-4.879-5.392a5.841,5.841,0,0,1,4.989-.618c0.33,1.956-.74,4.372-2.7,6.021a7.177,7.177,0,0,1-4.855,1.8,9.449,9.449,0,0,0,2.577-6.58C997.421,430.95,997.419,430.742,997.411,430.537Zm-7.436.488c0.044-2.621,1.222-4.981,2.91-5.918,1.655,1,2.754,3.4,2.71,6.018s-1.222,4.981-2.91,5.918C991.03,436.046,989.931,433.645,989.975,431.025Zm-7.039-1.106a5.945,5.945,0,0,1,5.226.759c0,0.1-.008.208-0.01,0.313a9.431,9.431,0,0,0,2.426,6.742,7.126,7.126,0,0,1-4.939-1.793C983.676,434.291,982.608,431.875,982.936,429.919Zm18.894,10.2a61.179,61.179,0,0,1-18.325,0,10.49,10.49,0,0,1-3.86-1.179c0.477-.324,1.86-0.906,4.963-1.348a0.817,0.817,0,0,0,.086-0.017c2.508,2,5.622,2.6,7.973,1.565,2.351,1.04,5.465.437,7.973-1.565,0.03,0.007.06,0.013,0.09,0.017,3.1,0.442,4.48,1.024,4.96,1.348A10.516,10.516,0,0,1,1001.83,440.12Zm11.54-27.4v-3.435a2.956,2.956,0,0,0-2.9-3H990.8a2.955,2.955,0,0,0-2.9,3v3.435a7.251,7.251,0,0,0-6.151,7.265v5.449a0.912,0.912,0,1,0,1.823,0v-5.449a5.345,5.345,0,0,1,5.24-5.434h20.327v2.034h-1.5a0.923,0.923,0,0,0-.91.946v7.221a0.923,0.923,0,0,0,.91.946h4.82a0.93,0.93,0,0,0,.91-0.946v-7.221a0.93,0.93,0,0,0-.91-0.946h-1.5v-2.034h1.5a5.345,5.345,0,0,1,5.24,5.434v12.761a5.346,5.346,0,0,1-5.24,5.435h-2.17a0.946,0.946,0,0,0,0,1.891h2.17a7.206,7.206,0,0,0,7.06-7.326V419.981A7.255,7.255,0,0,0,1013.37,412.716Zm-1.83,5.756V423.8h-2.99v-5.331h2.99Zm0-5.817H989.724v-3.374a1.1,1.1,0,0,1,1.074-1.115h19.672a1.094,1.094,0,0,1,1.07,1.115v3.374h0Z" transform="translate(-977.688 -406.281)"/>
</svg>
