<svg xmlns="http://www.w3.org/2000/svg" width="33.66" height="33.687" viewBox="0 0 33.66 33.687">
  <metadata><?xpacket begin="﻿" id="W5M0MpCehiHzreSzNTczkc9d"?>
<x:xmpmeta xmlns:x="adobe:ns:meta/" x:xmptk="Adobe XMP Core 5.6-c142 79.160924, 2017/07/13-01:06:39        ">
   <rdf:RDF xmlns:rdf="http://www.w3.org/1999/02/22-rdf-syntax-ns#">
      <rdf:Description rdf:about=""/>
   </rdf:RDF>
</x:xmpmeta>
                                                                                                    
                                                                                                    
                                                                                                    
                                                                                                    
                                                                                                    
                                                                                                    
                                                                                                    
                                                                                                    
                                                                                                    
                                                                                                    
                                                                                                    
                                                                                                    
                                                                                                    
                                                                                                    
                                                                                                    
                                                                                                    
                                                                                                    
                                                                                                    
                                                                                                    
                                                                                                    
                           
<?xpacket end="w"?></metadata>
<defs>
    <style>
      .cls-1 {
        fill: #14b4f7;
        fill-rule: evenodd;
      }
    </style>
  </defs>
  <path id="bannrico01" class="cls-1" d="M1262.97,124.83A2.172,2.172,0,0,0,1260.8,127v6.065a1.635,1.635,0,0,1-.57,1.238l-2.43,2.087a1.656,1.656,0,0,1-1.06.392h-1.91l2.1-2.365a2.443,2.443,0,0,0,.61-1.61v-0.122a2.42,2.42,0,0,0-4.22-1.622l-2.93,3.263a5.967,5.967,0,0,0-1.54,4v6.066h-1.08v-6.066a5.967,5.967,0,0,0-1.54-4l-2.93-3.263a2.42,2.42,0,0,0-4.22,1.621v0.122a2.446,2.446,0,0,0,.61,1.611l2.1,2.365h-1.91a1.656,1.656,0,0,1-1.06-.392l-2.43-2.087a1.635,1.635,0,0,1-.57-1.238V127a2.17,2.17,0,1,0-4.34,0v6.848a6,6,0,0,0,1.94,4.407l3.7,3.394a2.757,2.757,0,0,1,.88,2v0.739h-1.09v3.261h22.8v-3.261h-1.08v-0.739a2.721,2.721,0,0,1,.88-2l3.69-3.394a6,6,0,0,0,1.94-4.407V127A2.172,2.172,0,0,0,1262.97,124.83Zm-15.2,21.738H1238V145.48h6.51v-1.087h-5.43v-0.739a3.824,3.824,0,0,0-1.23-2.8l-3.7-3.393a4.89,4.89,0,0,1-1.58-3.606V127a1.085,1.085,0,1,1,2.17,0v6.065a2.691,2.691,0,0,0,.95,2.063l2.43,2.086a2.7,2.7,0,0,0,1.76.655h2.88l0.8,0.9,0.81-.723-3.87-4.356a1.367,1.367,0,0,1-.33-0.888v-0.122a1.337,1.337,0,0,1,1.33-1.337,1.324,1.324,0,0,1,.99.442l2.94,3.262a4.878,4.878,0,0,1,1.25,3.272v6.066h-1.08v1.087h2.17v1.088Zm16.28-12.717a4.89,4.89,0,0,1-1.58,3.606l-3.7,3.393a3.824,3.824,0,0,0-1.23,2.8v0.739h-5.43v1.087h6.52v1.088h-9.78V145.48h2.17v-1.087h-1.08v-6.066a4.878,4.878,0,0,1,1.25-3.272l2.94-3.262a1.324,1.324,0,0,1,.99-0.442,1.337,1.337,0,0,1,1.33,1.336v0.122a1.365,1.365,0,0,1-.33.888l-3.87,4.357,0.81,0.723,0.8-.9h2.88a2.7,2.7,0,0,0,1.76-.655l2.43-2.086a2.691,2.691,0,0,0,.95-2.063V127a1.085,1.085,0,1,1,2.17,0v6.848h0Zm-15.74-13.369a1.088,1.088,0,1,1,1.09-1.087h1.08a2.165,2.165,0,0,0-1.63-2.1v-1.165h-1.08V117.3a2.169,2.169,0,0,0,.54,4.27,1.087,1.087,0,1,1-1.09,1.087h-1.08a2.165,2.165,0,0,0,1.63,2.1v1.164h1.08v-1.164A2.169,2.169,0,0,0,1248.31,120.482Zm0-6.521a7.065,7.065,0,1,0,7.06,7.064A7.072,7.072,0,0,0,1248.31,113.961Zm0,13.042a5.978,5.978,0,1,1,5.97-5.978A5.982,5.982,0,0,1,1248.31,127Zm13.03-10.869a3.8,3.8,0,1,0,3.8,3.8A3.8,3.8,0,0,0,1261.34,116.134Zm0,6.522a2.718,2.718,0,1,1,2.71-2.718A2.713,2.713,0,0,1,1261.34,122.656Zm0.54-3.261v-1.088h-1.08V119.4h-1.09v1.087h1.09v1.087h1.08v-1.087h1.09V119.4h-1.09Zm-26.6-3.261a3.8,3.8,0,1,0,3.8,3.8A3.81,3.81,0,0,0,1235.28,116.134Zm0,6.522a2.718,2.718,0,1,1,2.72-2.718A2.713,2.713,0,0,1,1235.28,122.656Zm0.54-3.261v-1.088h-1.08V119.4h-1.09v1.087h1.09v1.087h1.08v-1.087h1.09V119.4h-1.09Zm16.29,1.087h1.09v1.087h-1.09v-1.087Zm-8.69,0h1.09v1.087h-1.09v-1.087Zm-3.8-6.521h1.09v1.086h-1.09v-1.086Zm0,2.173h1.09v1.087h-1.09v-1.087Zm1.09-1.087h1.09v1.087h-1.09v-1.087Zm-2.17,0h1.08v1.087h-1.08v-1.087Zm17.91,9.783h1.09v1.086h-1.09V124.83Zm0,2.173h1.09v1.087h-1.09V127Zm1.09-1.087h1.09V127h-1.09v-1.087Zm-2.17,0h1.08V127h-1.08v-1.087Z" transform="translate(-1231.47 -113.969)"/>
</svg>
