<svg xmlns="http://www.w3.org/2000/svg" width="33.66" height="38.25" viewBox="0 0 33.66 38.25">
  <metadata><?xpacket begin="﻿" id="W5M0MpCehiHzreSzNTczkc9d"?>
<x:xmpmeta xmlns:x="adobe:ns:meta/" x:xmptk="Adobe XMP Core 5.6-c142 79.160924, 2017/07/13-01:06:39        ">
   <rdf:RDF xmlns:rdf="http://www.w3.org/1999/02/22-rdf-syntax-ns#">
      <rdf:Description rdf:about=""/>
   </rdf:RDF>
</x:xmpmeta>
                                                                                                    
                                                                                                    
                                                                                                    
                                                                                                    
                                                                                                    
                                                                                                    
                                                                                                    
                                                                                                    
                                                                                                    
                                                                                                    
                                                                                                    
                                                                                                    
                                                                                                    
                                                                                                    
                                                                                                    
                                                                                                    
                                                                                                    
                                                                                                    
                                                                                                    
                                                                                                    
                           
<?xpacket end="w"?></metadata>
<defs>
    <style>
      .cls-1 {
        fill: #14b4f7;
        fill-rule: evenodd;
      }
    </style>
  </defs>
  <path id="bannrico03" class="cls-1" d="M1263.77,261.876a16.756,16.756,0,0,0-14.1-7.677,0.759,0.759,0,0,0-.75.762v16.15a0.755,0.755,0,0,0,1.17.638l13.46-8.819a0.752,0.752,0,0,0,.33-0.481A0.771,0.771,0,0,0,1263.77,261.876Zm-13.34,7.829V255.741a15.233,15.233,0,0,1,11.64,6.339Zm11.07-3.407a0.758,0.758,0,0,0-1.05-.222l-12.29,8.051V259.384a0.761,0.761,0,0,0-.76-0.762A16.88,16.88,0,1,0,1261.5,266.3Zm-14.86-6.133v13.214l-8.26-10.278A15.294,15.294,0,0,1,1246.64,260.165Zm0.76,30.757a15.4,15.4,0,0,1-10.2-26.862l9.61,11.953a0.754,0.754,0,0,0,1,.159l12.82-8.393A15.411,15.411,0,0,1,1247.4,290.922Zm10.91-19.637a0.757,0.757,0,0,0-1.05-.223l-4.94,3.231a0.763,0.763,0,0,0,.42,1.4,0.751,0.751,0,0,0,.41-0.125l4.93-3.229A0.775,0.775,0,0,0,1258.31,271.285Zm2.33-1.528a0.758,0.758,0,0,0-1.05-.223l-0.27.175a0.763,0.763,0,0,0,.42,1.4,0.748,0.748,0,0,0,.41-0.123l0.27-.175A0.763,0.763,0,0,0,1260.64,269.757Z" transform="translate(-1230.56 -254.188)"/>
</svg>
