<svg xmlns="http://www.w3.org/2000/svg" width="37.31" height="37.313" viewBox="0 0 37.31 37.313">
  <metadata><?xpacket begin="﻿" id="W5M0MpCehiHzreSzNTczkc9d"?>
<x:xmpmeta xmlns:x="adobe:ns:meta/" x:xmptk="Adobe XMP Core 5.6-c142 79.160924, 2017/07/13-01:06:39        ">
   <rdf:RDF xmlns:rdf="http://www.w3.org/1999/02/22-rdf-syntax-ns#">
      <rdf:Description rdf:about=""/>
   </rdf:RDF>
</x:xmpmeta>
                                                                                                    
                                                                                                    
                                                                                                    
                                                                                                    
                                                                                                    
                                                                                                    
                                                                                                    
                                                                                                    
                                                                                                    
                                                                                                    
                                                                                                    
                                                                                                    
                                                                                                    
                                                                                                    
                                                                                                    
                                                                                                    
                                                                                                    
                                                                                                    
                                                                                                    
                                                                                                    
                           
<?xpacket end="w"?></metadata>
<defs>
    <style>
      .cls-1 {
        fill: #14b4f7;
        fill-rule: evenodd;
      }
    </style>
  </defs>
  <path id="bannrico02" class="cls-1" d="M1130.28,214.588a35.389,35.389,0,0,1-3.36-1.311v-0.036a5.443,5.443,0,0,0,3.11-4.915v-2.334a5.44,5.44,0,1,0-10.88,0v2.334a5.443,5.443,0,0,0,3.11,4.915v0.036a35.208,35.208,0,0,1-3.35,1.311c-2.83.944-2.87,2.985-2.87,3.071v4.668h1.56v-4.646c0-.043.07-1.043,1.8-1.613a32.889,32.889,0,0,0,3.98-1.6,0.77,0.77,0,0,0,.43-0.7v-1.049a0.772,0.772,0,0,0-.51-0.734,3.89,3.89,0,0,1-2.59-3.662v-2.334a3.885,3.885,0,1,1,7.77,0v2.334a3.912,3.912,0,0,1-2.6,3.662,0.772,0.772,0,0,0-.51.734v1.049a0.77,0.77,0,0,0,.43.7,33.2,33.2,0,0,0,3.98,1.595c1.73,0.573,1.8,1.573,1.8,1.594v4.668h1.56v-4.668C1133.14,217.573,1133.1,215.532,1130.28,214.588Zm-13.46-14.042a5.44,5.44,0,0,0-5.44,5.446v2.334a5.443,5.443,0,0,0,3.11,4.915v0.036c-1.1.5-2.22,0.932-3.35,1.311-2.84.944-2.87,2.985-2.87,3.071v4.668h1.56v-4.646c0-.043.07-1.043,1.8-1.613a32.889,32.889,0,0,0,3.98-1.6,0.77,0.77,0,0,0,.43-0.7v-1.049a0.772,0.772,0,0,0-.51-0.734,3.912,3.912,0,0,1-2.6-3.662v-2.334a3.9,3.9,0,0,1,5.74-3.422l0.75-1.365A5.452,5.452,0,0,0,1116.82,200.546Zm6.99,17.891h1.56v1.556h-1.56v-1.556Zm3.11,0h1.56v1.556h-1.56v-1.556Zm-6.21,0h1.55v1.556h-1.55v-1.556Zm20.2,3.89v-4.668c0-.086-0.03-2.127-2.86-3.071a35.389,35.389,0,0,1-3.36-1.311v-0.036a5.443,5.443,0,0,0,3.11-4.915v-2.207a5.441,5.441,0,0,0-8.03-4.913l0.74,1.367a3.905,3.905,0,0,1,2.76-.369,3.97,3.97,0,0,1,2.98,3.915v2.207a3.9,3.9,0,0,1-2.59,3.662,0.767,0.767,0,0,0-.52.734v1.049a0.77,0.77,0,0,0,.43.7,33.2,33.2,0,0,0,3.98,1.595c1.73,0.573,1.8,1.573,1.8,1.594v4.668h1.56Zm-1.56-37.336h-29.52a3.889,3.889,0,0,0-3.89,3.889v12.444h1.56V188.88a2.329,2.329,0,0,1,2.33-2.334h29.52a2.338,2.338,0,0,1,2.34,2.334v12.444h1.55V188.88A3.889,3.889,0,0,0,1139.35,184.991Zm-13.98,3.889h-13.99a0.779,0.779,0,0,0-.78.777v3.112a0.78,0.78,0,0,0,.78.778h13.99a0.771,0.771,0,0,0,.77-0.778v-3.112A0.771,0.771,0,0,0,1125.37,188.88Zm-0.78,3.111h-12.43v-1.556h12.43v1.556Zm3.11-3.111h1.55v1.555h-1.55V188.88Zm3.11,0h1.55v1.555h-1.55V188.88Zm-3.11,3.111h10.88v1.556H1127.7v-1.556Zm-9.32,3.889a0.72,0.72,0,0,1-.14,0,0.712,0.712,0,0,1-.64-0.779h-1.56v0.133a2.267,2.267,0,0,0,2.33,2.2h6.22V195.88h-6.21Zm14.76-.778h-1.56a0.326,0.326,0,0,1,0,.139,0.7,0.7,0,0,1-.77.639h-6.22a0.779,0.779,0,0,0-.78.778v2.333h1.56v-1.556h5.44c0.04,0,.08,0,0.13,0A2.272,2.272,0,0,0,1133.14,195.1Z" transform="translate(-1105.94 -185)"/>
</svg>
