<svg xmlns="http://www.w3.org/2000/svg" width="39.13" height="40.969" viewBox="0 0 39.13 40.969">
  <metadata><?xpacket begin="﻿" id="W5M0MpCehiHzreSzNTczkc9d"?>
<x:xmpmeta xmlns:x="adobe:ns:meta/" x:xmptk="Adobe XMP Core 5.6-c142 79.160924, 2017/07/13-01:06:39        ">
   <rdf:RDF xmlns:rdf="http://www.w3.org/1999/02/22-rdf-syntax-ns#">
      <rdf:Description rdf:about=""/>
   </rdf:RDF>
</x:xmpmeta>
                                                                                                    
                                                                                                    
                                                                                                    
                                                                                                    
                                                                                                    
                                                                                                    
                                                                                                    
                                                                                                    
                                                                                                    
                                                                                                    
                                                                                                    
                                                                                                    
                                                                                                    
                                                                                                    
                                                                                                    
                                                                                                    
                                                                                                    
                                                                                                    
                                                                                                    
                                                                                                    
                           
<?xpacket end="w"?></metadata>
<defs>
    <style>
      .cls-1 {
        fill: #14b4f7;
        fill-rule: evenodd;
      }
    </style>
  </defs>
  <path id="bannrico04" class="cls-1" d="M1143.34,361.875h-1.77v-25.49a2.161,2.161,0,0,0-2.17-2.151h-3.95a2.161,2.161,0,0,0-2.17,2.151v25.49h-4.5v-13.94a2.16,2.16,0,0,0-2.16-2.153h-3.96a2.162,2.162,0,0,0-2.17,2.153v13.94H1116v-7.22a2.168,2.168,0,0,0-2.17-2.152h-3.96a2.168,2.168,0,0,0-2.17,2.152v7.22h-1.86a0.8,0.8,0,1,0,0,1.6h37.5A0.8,0.8,0,1,0,1143.34,361.875Zm-28.96,0h-5.06v-7.22a0.553,0.553,0,0,1,.55-0.551h3.96a0.553,0.553,0,0,1,.55.551v7.22h0Zm12.79,0h-5.07v-13.94a0.556,0.556,0,0,1,.56-0.552h3.96a0.554,0.554,0,0,1,.55.552v13.94Zm12.79,0h-5.07v-25.49a0.554,0.554,0,0,1,.56-0.55h3.95a0.554,0.554,0,0,1,.56.55v25.49h0Zm1.61-38.537a0.795,0.795,0,0,0-.85-0.84,0.3,0.3,0,0,0-.04,0h-4.88a0.8,0.8,0,0,0,0,1.6h3.02l-7.98,7.912-3.01-2.984a0.8,0.8,0,0,0-.57-0.234,0.814,0.814,0,0,0-.57.234l-14.5,14.389a0.8,0.8,0,0,0,.57,1.366,0.819,0.819,0,0,0,.57-0.235l13.93-13.821,3.01,2.983a0.811,0.811,0,0,0,1.14,0l8.55-8.478v2.706a0.805,0.805,0,0,0,1.61,0v-4.6Zm-31.53,22.634a0.8,0.8,0,1,1-.81.8A0.8,0.8,0,0,1,1110.04,345.972Z" transform="translate(-1105.03 -322.5)"/>
</svg>
