<svg xmlns="http://www.w3.org/2000/svg" width="44" height="43" viewBox="0 0 44 43">
  <metadata><?xpacket begin="﻿" id="W5M0MpCehiHzreSzNTczkc9d"?>
<x:xmpmeta xmlns:x="adobe:ns:meta/" x:xmptk="Adobe XMP Core 5.6-c142 79.160924, 2017/07/13-01:06:39        ">
   <rdf:RDF xmlns:rdf="http://www.w3.org/1999/02/22-rdf-syntax-ns#">
      <rdf:Description rdf:about=""/>
   </rdf:RDF>
</x:xmpmeta>
                                                                                                    
                                                                                                    
                                                                                                    
                                                                                                    
                                                                                                    
                                                                                                    
                                                                                                    
                                                                                                    
                                                                                                    
                                                                                                    
                                                                                                    
                                                                                                    
                                                                                                    
                                                                                                    
                                                                                                    
                                                                                                    
                                                                                                    
                                                                                                    
                                                                                                    
                                                                                                    
                           
<?xpacket end="w"?></metadata>
<defs>
    <style>
      .cls-1 {
        fill: #fff;
        fill-rule: evenodd;
      }
    </style>
  </defs>
  <path id="education02" class="cls-1" d="M908.71,606.8V587.912h18.737l-1.107-1.718H907.009v22.328h14.017l2.5-1.717H908.71Zm30.68,0h-0.829l1.526,1.717h1V596.081l-1.7-.605V606.8Zm-19.8-15.1h10.145v1.307H919.593v-1.307Zm-3.775,3.351h17.7V596.5h-17.7v-1.441Zm0,3.02h17.7v1.441h-17.7v-1.441Zm0,2.856h17.7v1.441h-17.7v-1.441Zm19.838,6.277a3.83,3.83,0,1,0-3.832,3.868A3.851,3.851,0,0,0,935.656,607.211Zm-3.83,5.82,3.1,3.964,1.477-3.927,4.123-.545-3.1-3.963Zm-9.851-2.688,3.889,1.494L926.4,616l3.924-3.134-4.426-5.662Zm5.285-36.355-1.169,1.659,3.6,2.594-3.813,5.41,6.538,8.415,9.52,3.145,3.812-5.408,1.753,1.259L944.8,594.9l-0.874-.632-2.29,3.246,2.727,1.962,2.285-3.245-0.582-.423,2.7-3.833,1.07,0.771,1.173-1.662Z" transform="translate(-907 -574)"/>
</svg>
