<svg xmlns="http://www.w3.org/2000/svg" width="41" height="39" viewBox="0 0 41 39">
  <metadata><?xpacket begin="﻿" id="W5M0MpCehiHzreSzNTczkc9d"?>
<x:xmpmeta xmlns:x="adobe:ns:meta/" x:xmptk="Adobe XMP Core 5.6-c142 79.160924, 2017/07/13-01:06:39        ">
   <rdf:RDF xmlns:rdf="http://www.w3.org/1999/02/22-rdf-syntax-ns#">
      <rdf:Description rdf:about=""/>
   </rdf:RDF>
</x:xmpmeta>
                                                                                                    
                                                                                                    
                                                                                                    
                                                                                                    
                                                                                                    
                                                                                                    
                                                                                                    
                                                                                                    
                                                                                                    
                                                                                                    
                                                                                                    
                                                                                                    
                                                                                                    
                                                                                                    
                                                                                                    
                                                                                                    
                                                                                                    
                                                                                                    
                                                                                                    
                                                                                                    
                           
<?xpacket end="w"?></metadata>
<defs>
    <style>
      .cls-1 {
        fill: #fff;
        fill-rule: evenodd;
      }
    </style>
  </defs>
  <path id="education03" class="cls-1" d="M1043.9,602.174c0,0.452-.02.9,0.01,1.351a0.6,0.6,0,0,0,.23.323,8.316,8.316,0,0,1,1.27,1.1,2.4,2.4,0,0,1-.18,3.1,0.664,0.664,0,0,0-.14.644c0.46,1.753.9,3.509,1.34,5.264a2.088,2.088,0,0,1-1.01,2.441,4.234,4.234,0,0,1-4.55-.117,2.115,2.115,0,0,1-.82-2.3c0.38-1.537.78-3.075,1.16-4.612a1.433,1.433,0,0,1,.06-0.2,1.339,1.339,0,0,0-.21-1.41,2.581,2.581,0,0,1,1.16-3.828,0.515,0.515,0,0,0,.37-0.584c-0.03-.533.01-1.07-0.01-1.6a0.646,0.646,0,0,0-.24-0.419c-0.47-.344-0.98-0.639-1.45-0.982a4.065,4.065,0,0,1-1.72-3.422c-0.01-1.844-.02-3.687,0-5.531a0.566,0.566,0,0,0-.42-0.648c-1.88-.75-3.76-1.522-5.64-2.287a1.465,1.465,0,0,1,.01-2.845q8.955-3.647,17.9-7.294a3.743,3.743,0,0,1,2.94-.011q8.955,3.648,17.91,7.3a2.341,2.341,0,0,1,.61.338,1.432,1.432,0,0,1-.43,2.453c-1.92.794-3.83,1.574-5.76,2.339a0.6,0.6,0,0,0-.45.668c0.02,1.815.01,3.631,0.01,5.447a4.175,4.175,0,0,1-1.77,3.532,16.468,16.468,0,0,1-7.37,2.991,24.48,24.48,0,0,1-9.53-.23C1046.08,602.879,1045.02,602.5,1043.9,602.174Zm-10.69-15.16c0.21,0.1.3,0.154,0.4,0.195,3.09,1.26,6.19,2.525,9.28,3.768a0.877,0.877,0,0,0,.65-0.041c2.76-1.416,5.5-2.852,8.25-4.282,0.13-.069.26-0.13,0.42-0.206,0.2,0.408.38,0.78,0.58,1.177-2.65,1.385-5.27,2.752-7.93,4.137,0.1,0.056.14,0.089,0.19,0.109q3.315,1.353,6.64,2.7a2.165,2.165,0,0,0,1.69-.019l18.06-7.36c0.09-.038.17-0.1,0.33-0.183-0.21-.094-0.34-0.161-0.47-0.216q-8.865-3.611-17.71-7.225a2.747,2.747,0,0,0-2.2.014q-8.49,3.477-16.98,6.928C1034.04,586.66,1033.68,586.816,1033.21,587.014Zm31.31,4.459c-0.16.057-.28,0.1-0.41,0.147q-5.055,2.058-10.12,4.121a3.761,3.761,0,0,1-2.97,0c-2.13-.875-4.27-1.74-6.4-2.608-0.23-.091-0.45-0.177-0.68-0.266a1.346,1.346,0,0,0-.04.131q0,3.693.01,7.386a0.517,0.517,0,0,0,.28.38,19.551,19.551,0,0,0,2.05.765,23.418,23.418,0,0,0,9.95.571,15.191,15.191,0,0,0,7.16-2.831,2.8,2.8,0,0,0,1.2-2.408c-0.01-1.66,0-3.321,0-4.981C1064.55,591.758,1064.53,591.636,1064.52,591.473Zm-21.83,17.561a0.433,0.433,0,0,0-.06.1q-0.69,2.67-1.36,5.34a0.617,0.617,0,0,0,.3.683,3.117,3.117,0,0,0,3.35,0,0.643,0.643,0,0,0,.27-0.765c-0.23-.867-0.44-1.74-0.66-2.61-0.23-.921-0.47-1.841-0.7-2.75h-1.14Zm-0.22-9.147,0.12-.079q0-3.645-.01-7.291a0.311,0.311,0,0,0-.1-0.245c-0.65-.279-1.31-0.54-1.99-0.815,0,2.019-.03,3.96.03,5.9a2.562,2.562,0,0,0,.57,1.353A9.474,9.474,0,0,0,1042.47,599.887Zm0.74,7.828a1.23,1.23,0,0,0,1.36-1.333A1.331,1.331,0,1,0,1043.21,607.715Z" transform="translate(-1032 -578)"/>
</svg>
