<svg xmlns="http://www.w3.org/2000/svg" width="40" height="40" viewBox="0 0 40 40">
  <metadata><?xpacket begin="﻿" id="W5M0MpCehiHzreSzNTczkc9d"?>
<x:xmpmeta xmlns:x="adobe:ns:meta/" x:xmptk="Adobe XMP Core 5.6-c142 79.160924, 2017/07/13-01:06:39        ">
   <rdf:RDF xmlns:rdf="http://www.w3.org/1999/02/22-rdf-syntax-ns#">
      <rdf:Description rdf:about=""/>
   </rdf:RDF>
</x:xmpmeta>
                                                                                                    
                                                                                                    
                                                                                                    
                                                                                                    
                                                                                                    
                                                                                                    
                                                                                                    
                                                                                                    
                                                                                                    
                                                                                                    
                                                                                                    
                                                                                                    
                                                                                                    
                                                                                                    
                                                                                                    
                                                                                                    
                                                                                                    
                                                                                                    
                                                                                                    
                                                                                                    
                           
<?xpacket end="w"?></metadata>
<defs>
    <style>
      .cls-1 {
        fill: #fff;
        fill-rule: evenodd;
      }
    </style>
  </defs>
  <path id="education01" class="cls-1" d="M787.667,600.666a0.667,0.667,0,0,0,.666.667H791a0.667,0.667,0,0,0,.667-0.667v-4A0.667,0.667,0,0,0,791,596h-2.667a0.666,0.666,0,0,0-.666.666v4h0ZM789,597.333h1.333V600H789v-2.666Zm-0.667-4H791a0.667,0.667,0,0,0,.667-0.667v-4A0.667,0.667,0,0,0,791,588h-2.667a0.666,0.666,0,0,0-.666.666v4A0.667,0.667,0,0,0,788.333,593.333Zm0.667-4h1.333V592H789v-2.666Zm-5.657-.762L793,582.777l9.657,5.794a0.666,0.666,0,0,0,.914-0.229,0.665,0.665,0,0,0-.228-0.914l-9.676-5.806v-4.289H797v1.333h-2A0.667,0.667,0,1,0,795,580h2.667a0.666,0.666,0,0,0,.666-0.666v-2.667a0.667,0.667,0,0,0-.666-0.667H793a0.667,0.667,0,0,0-.667.667v4.956l-9.676,5.806A0.667,0.667,0,0,0,783.343,588.571Zm-3.01,12.762a0.667,0.667,0,0,0,.667-0.667v-4a0.667,0.667,0,0,0-.667-0.666h-2.666a0.667,0.667,0,0,0-.667.666V598a0.667,0.667,0,1,0,1.333,0v-0.666h1.334v3.333A0.667,0.667,0,0,0,780.333,601.333ZM785,610V590.666a0.667,0.667,0,1,0-1.333,0V610A0.667,0.667,0,0,0,785,610Zm-3.333,3.333h22.666a0.667,0.667,0,1,0,0-1.333h-6v-6.667H799A0.667,0.667,0,0,0,799,604H787a0.667,0.667,0,1,0,0,1.333h0.667V612h-6A0.667,0.667,0,1,0,781.667,613.333Zm12-4a0.667,0.667,0,0,0,0-1.333v-2.667H797V612h-3.333v-2.666h0Zm-4.667-4h3.333V608a0.667,0.667,0,0,0,0,1.334V612H789v-6.666Zm19.333-.667h-2.666a0.667,0.667,0,0,0-.667.667v4a0.667,0.667,0,0,0,.667.667h2.666a0.667,0.667,0,0,0,.667-0.667v-4A0.667,0.667,0,0,0,808.333,604.666Zm-0.666,4h-1.334V606h1.334v2.666Zm0.666-12h-2.666a0.667,0.667,0,0,0-.667.667v4a0.667,0.667,0,0,0,.667.666h2.666a0.667,0.667,0,0,0,.667-0.666v-4A0.667,0.667,0,0,0,808.333,596.666Zm-0.666,4h-1.334V598h1.334v2.667Zm-0.667,14H779A0.667,0.667,0,0,0,779,616h28A0.667,0.667,0,0,0,807,614.666Zm5.333-24a0.667,0.667,0,0,0-.666.667V592h-7.334a0.667,0.667,0,0,0,0,1.334h7.334v22a0.667,0.667,0,0,0,1.333,0v-24A0.667,0.667,0,0,0,812.333,590.666Zm-18,10a0.667,0.667,0,0,0,.667.667h2.667a0.667,0.667,0,0,0,.666-0.667v-4a0.666,0.666,0,0,0-.666-0.666H795a0.667,0.667,0,0,0-.667.666v4h0Zm1.334-3.333H797V600h-1.333v-2.666h0Zm-16,11.333c0-.086-0.038-8.667-3.334-8.667S773,608.58,773,608.666a3.339,3.339,0,0,0,2.667,3.266v3.4a0.667,0.667,0,1,0,1.333,0v-3.4A3.34,3.34,0,0,0,779.667,608.666Zm-3.334,2a2,2,0,0,1-2-2c0-3.321.892-7.333,2-7.333s2,4.012,2,7.333A2,2,0,0,1,776.333,610.666Zm26-.666V590A0.667,0.667,0,0,0,801,590v20A0.667,0.667,0,0,0,802.333,610ZM795,593.333h2.667a0.667,0.667,0,0,0,.666-0.667v-4a0.666,0.666,0,0,0-.666-0.666H795a0.667,0.667,0,0,0-.667.666v4A0.667,0.667,0,0,0,795,593.333Zm0.667-4H797V592h-1.333v-2.666h0Zm-22,10a0.666,0.666,0,0,0,.666-0.666v-5.334h7.334a0.667,0.667,0,0,0,0-1.334h-7.334v-0.666a0.667,0.667,0,0,0-1.333,0v7.334A0.667,0.667,0,0,0,773.667,599.333Z" transform="translate(-773 -576)"/>
</svg>
