<svg xmlns="http://www.w3.org/2000/svg" width="47" height="35" viewBox="0 0 47 35">
  <metadata><?xpacket begin="﻿" id="W5M0MpCehiHzreSzNTczkc9d"?>
<x:xmpmeta xmlns:x="adobe:ns:meta/" x:xmptk="Adobe XMP Core 5.6-c142 79.160924, 2017/07/13-01:06:39        ">
   <rdf:RDF xmlns:rdf="http://www.w3.org/1999/02/22-rdf-syntax-ns#">
      <rdf:Description rdf:about=""/>
   </rdf:RDF>
</x:xmpmeta>
                                                                                                    
                                                                                                    
                                                                                                    
                                                                                                    
                                                                                                    
                                                                                                    
                                                                                                    
                                                                                                    
                                                                                                    
                                                                                                    
                                                                                                    
                                                                                                    
                                                                                                    
                                                                                                    
                                                                                                    
                                                                                                    
                                                                                                    
                                                                                                    
                                                                                                    
                                                                                                    
                           
<?xpacket end="w"?></metadata>
<defs>
    <style>
      .cls-1 {
        fill: #fff;
        fill-rule: evenodd;
      }
    </style>
  </defs>
  <path class="cls-1" d="M863.466,587.755a13.261,13.261,0,0,0-4.724-.821,0.7,0.7,0,0,0,0,1.4,11.739,11.739,0,0,1,4.109.673,0.682,0.682,0,0,0,.923-0.312A0.7,0.7,0,0,0,863.466,587.755ZM866.9,597.7l-2.844-.824a0.293,0.293,0,0,1-.208-0.28v-0.963a5.239,5.239,0,0,0,.658-0.548,5.173,5.173,0,0,0,1.55-3.717v-1.328l0.275-.558a4.5,4.5,0,0,0,.462-1.982v-3.6a0.694,0.694,0,0,0-.689-0.7h-6.625a4.406,4.406,0,0,0-4.369,4.432v0.041a3.739,3.739,0,0,0,.383,1.648l0.353,0.716v1.141a5.474,5.474,0,0,0,2.208,4.4v1.009c0,0.156,0,.22-0.568.385l-1.387.4-4.014-1.48a0.7,0.7,0,0,0-.188-0.535L850.614,594v-2.3c0.136-.113.269-0.23,0.4-0.353a8.252,8.252,0,0,0,2.546-5.959V583.56a8.179,8.179,0,0,0,.736-3.395V572.7a0.694,0.694,0,0,0-.689-0.7H843.3a6.632,6.632,0,0,0-6.577,6.672v1.494a8.159,8.159,0,0,0,.736,3.394v1.577a8.585,8.585,0,0,0,2.944,6.513V594l-1.282,1.366a0.708,0.708,0,0,0-.188.535l-4.236,1.563a3.574,3.574,0,0,0-.851.452l-0.665-.338a5.281,5.281,0,0,0,2.637-2.165,0.705,0.705,0,0,0,0-.624,12.576,12.576,0,0,1-.6-4.336c-0.016-.493-0.032-0.96-0.061-1.375a5.84,5.84,0,1,0-11.679,0c-0.029.415-.044,0.882-0.06,1.375a12.6,12.6,0,0,1-.605,4.336,0.705,0.705,0,0,0,0,.624,5.28,5.28,0,0,0,2.64,2.164l-1.848.937a2.928,2.928,0,0,0-1.6,2.629V606.3a0.689,0.689,0,1,0,1.377,0v-5.159a1.536,1.536,0,0,1,.84-1.38l2.3-1.166,0.8,0.771a2.866,2.866,0,0,0,3.991,0l0.8-.771,0.751,0.38a3.71,3.71,0,0,0-.554,1.95V606.3a0.689,0.689,0,1,0,1.377,0v-5.375a2.3,2.3,0,0,1,1.485-2.151l4.466-1.647,1.859,2.829a1.414,1.414,0,0,0,1.045.636,1.367,1.367,0,0,0,.142.008,1.41,1.41,0,0,0,1.006-.424l1.134-1.151V606.3a0.689,0.689,0,1,0,1.377,0v-7.275l1.134,1.151a1.412,1.412,0,0,0,1.006.424,1.352,1.352,0,0,0,.142-0.008,1.412,1.412,0,0,0,1.045-.636l1.859-2.829,4.466,1.647a2.294,2.294,0,0,1,1.485,2.151V606.3a0.689,0.689,0,1,0,1.377,0v-5.375a3.718,3.718,0,0,0-1.018-2.555l0.17-.049a3.746,3.746,0,0,0,.641-0.235l1.758,1.783V606.3a0.689,0.689,0,1,0,1.377,0V599.87l1.745-1.771a1.589,1.589,0,0,0,.293.118l2.844,0.825a1.543,1.543,0,0,1,1.1,1.482V606.3a0.689,0.689,0,1,0,1.377,0v-5.777A2.946,2.946,0,0,0,866.9,597.7Zm-40.482-1.234a4.942,4.942,0,0,1-2.21-1.439,7.8,7.8,0,0,0,.393-1.672,5.18,5.18,0,0,0,1.817,2.274v0.837Zm3.944,1.891a1.5,1.5,0,0,1-2.094,0l-0.641-.618a1.461,1.461,0,0,0,.168-0.682v-0.744a5.064,5.064,0,0,0,3.04,0v0.743a1.46,1.46,0,0,0,.167.682Zm-1.047-3.206a3.76,3.76,0,0,1-3.728-3.783,0.694,0.694,0,0,0-.689-0.7,0.708,0.708,0,0,0-.113.01l0.006-.179c0.015-.481.03-0.934,0.058-1.323a5.218,5.218,0,0,1,1.391-3.256,4.236,4.236,0,0,1,6.149,0,5.219,5.219,0,0,1,1.392,3.256c0.027,0.389.042,0.842,0.058,1.322,0,0.042,0,.083,0,0.125a6.192,6.192,0,0,0-3.4-2.521,8.539,8.539,0,0,0-2.618-.421,0.687,0.687,0,0,0-.477.214L826.1,589.2a0.7,0.7,0,0,0,.018.987,0.68,0.68,0,0,0,.973-0.018l1.034-1.087c0.89,0.044,3.754.382,4.867,2.87A3.736,3.736,0,0,1,829.314,595.149Zm2.9,1.318v-0.833a5.153,5.153,0,0,0,1.817-2.277,7.851,7.851,0,0,0,.392,1.669A4.968,4.968,0,0,1,832.21,596.467Zm6.626-11.33V583.4a0.7,0.7,0,0,0-.069-0.3,6.783,6.783,0,0,1-.667-2.935v-1.494a5.244,5.244,0,0,1,5.2-5.275h9.618v6.769a6.784,6.784,0,0,1-.668,2.935,0.7,0.7,0,0,0-.068.3v1.989a6.75,6.75,0,0,1-2.111,4.939,6.643,6.643,0,0,1-.529.454l-0.011.009a6.556,6.556,0,0,1-4.468,1.352A6.88,6.88,0,0,1,838.836,585.137Zm3.876,14.052a0.042,0.042,0,0,1-.038.014,0.042,0.042,0,0,1-.035-0.021l-2.141-3.258,0.689-.735,3.248,2.253Zm2.8-2.695-3.729-2.585v-1.3a7.68,7.68,0,0,0,3.194.935c0.182,0.012.362,0.018,0.542,0.018a7.885,7.885,0,0,0,3.721-.926v1.276Zm2.869,2.688a0.04,0.04,0,0,1-.035.021,0.044,0.044,0,0,1-.038-0.013l-1.723-1.748,3.249-2.252,0.689,0.734Zm12.572-.589-1.562-1.585a1.969,1.969,0,0,0,.042-0.415V596.3a4.738,4.738,0,0,0,1.364.245c0.053,0,.105,0,0.158,0a5.037,5.037,0,0,0,1.518-.233v0.282a1.674,1.674,0,0,0,.05.407Zm2.6-4.512a3.67,3.67,0,0,1-2.711,1.066,3.887,3.887,0,0,1-3.613-3.968v-1.306a0.7,0.7,0,0,0-.073-0.312l-0.425-.863a2.325,2.325,0,0,1-.238-1.024v-0.041a3.017,3.017,0,0,1,2.992-3.035h5.937v2.9a3.1,3.1,0,0,1-.316,1.358l-0.348.705a0.7,0.7,0,0,0-.072.312v1.493A3.781,3.781,0,0,1,863.546,594.081Zm1.821,7.041a0.694,0.694,0,0,0-.689.7V606.3a0.689,0.689,0,1,0,1.377,0V601.82A0.693,0.693,0,0,0,865.367,601.122Zm-39.734.923a0.694,0.694,0,0,0-.689.7V606.3a0.689,0.689,0,1,0,1.377,0v-3.557A0.694,0.694,0,0,0,825.633,602.045Zm25.515-21.627c-2.6-2.641-8.052-2.136-10.273-1.8a1.427,1.427,0,0,0-1.208,1.428v1.609a0.689,0.689,0,1,0,1.377,0V580.05A0.046,0.046,0,0,1,841.08,580a21.447,21.447,0,0,1,4.473-.222,7.048,7.048,0,0,1,4.622,1.625,0.68,0.68,0,0,0,.973,0A0.706,0.706,0,0,0,851.148,580.418Zm-13.737,22.2a0.693,0.693,0,0,0-.688.7V606.3a0.689,0.689,0,1,0,1.377,0v-2.987A0.694,0.694,0,0,0,837.411,602.616Zm16.2,0a0.693,0.693,0,0,0-.688.7V606.3a0.689,0.689,0,1,0,1.377,0v-2.987A0.694,0.694,0,0,0,853.606,602.616Z" transform="translate(-822 -572)"/>
</svg>
