<svg xmlns="http://www.w3.org/2000/svg" width="32" height="32" viewBox="0 0 32 32">
  <metadata><?xpacket begin="﻿" id="W5M0MpCehiHzreSzNTczkc9d"?>
<x:xmpmeta xmlns:x="adobe:ns:meta/" x:xmptk="Adobe XMP Core 5.6-c142 79.160924, 2017/07/13-01:06:39        ">
   <rdf:RDF xmlns:rdf="http://www.w3.org/1999/02/22-rdf-syntax-ns#">
      <rdf:Description rdf:about=""/>
   </rdf:RDF>
</x:xmpmeta>
                                                                                                    
                                                                                                    
                                                                                                    
                                                                                                    
                                                                                                    
                                                                                                    
                                                                                                    
                                                                                                    
                                                                                                    
                                                                                                    
                                                                                                    
                                                                                                    
                                                                                                    
                                                                                                    
                                                                                                    
                                                                                                    
                                                                                                    
                                                                                                    
                                                                                                    
                                                                                                    
                           
<?xpacket end="w"?></metadata>
<defs>
    <style>
      .cls-1 {
        fill: #fff;
        fill-rule: evenodd;
      }
    </style>
  </defs>
  <path id="education04" class="cls-1" d="M1198.82,600.879c-0.03-.034-0.06-0.071-0.09-0.1l-4.62-4.621a1.038,1.038,0,0,1-.09-0.087c-0.63,1.432-1.24,2.854-1.87,4.3-0.11-.277-0.2-0.526-0.3-0.775q-2.325-6.156-4.67-12.312c-0.02-.053-0.02-0.111-0.04-0.166,1.65,0.626,3.31,1.251,4.96,1.878l8.13,3.086c0.04,0.015.08,0.034,0.14,0.061-1.45.627-2.89,1.243-4.33,1.862l4.82,4.811c-0.68.7-1.35,1.38-2.02,2.061h-0.02Zm-0.02-1.027c0.35-.35.68-0.681,1.02-1.014q-2.49-2.52-5.01-5.078c1.22-.529,2.43-1.051,3.67-1.583l-10.14-3.846c1.27,3.391,2.54,6.75,3.81,10.138,0.55-1.239,1.08-2.446,1.61-3.66Q1196.31,597.349,1198.8,599.852ZM1194,610a16,16,0,0,1-13.62-24.392,0.753,0.753,0,1,1,1.28.793,14.492,14.492,0,1,0,12.34-6.889,0.756,0.756,0,1,1,0-1.512A16,16,0,0,1,1194,610Zm-11.68-22.674a3.471,3.471,0,1,1,3.47-3.471A3.477,3.477,0,0,1,1182.32,587.326Zm0-5.429a1.959,1.959,0,1,0,1.96,1.958A1.953,1.953,0,0,0,1182.32,581.9Z" transform="translate(-1178 -578)"/>
</svg>
