<svg xmlns="http://www.w3.org/2000/svg" width="49" height="55" viewBox="0 0 49 55">
  <metadata><?xpacket begin="﻿" id="W5M0MpCehiHzreSzNTczkc9d"?>
<x:xmpmeta xmlns:x="adobe:ns:meta/" x:xmptk="Adobe XMP Core 5.6-c142 79.160924, 2017/07/13-01:06:39        ">
   <rdf:RDF xmlns:rdf="http://www.w3.org/1999/02/22-rdf-syntax-ns#">
      <rdf:Description rdf:about=""/>
   </rdf:RDF>
</x:xmpmeta>
                                                                                                    
                                                                                                    
                                                                                                    
                                                                                                    
                                                                                                    
                                                                                                    
                                                                                                    
                                                                                                    
                                                                                                    
                                                                                                    
                                                                                                    
                                                                                                    
                                                                                                    
                                                                                                    
                                                                                                    
                                                                                                    
                                                                                                    
                                                                                                    
                                                                                                    
                                                                                                    
                           
<?xpacket end="w"?></metadata>
<defs>
    <style>
      .cls-1 {
        fill: #23428f;
        fill-rule: evenodd;
      }
    </style>
  </defs>
  <path id="facilty06" class="cls-1" d="M948.163,1429.49h4.4a1.434,1.434,0,0,0,1.222-.67,1.4,1.4,0,0,0,.062-1.38l-0.178-.35a38.875,38.875,0,0,0-17.414-17.08l-4.37-2.29,1.5-1.47a1.411,1.411,0,0,0,0-2.01,1.455,1.455,0,0,0-2.03,0l-0.42.42v-2.25a1.436,1.436,0,0,0-2.872,0v2.25l-0.42-.42a1.455,1.455,0,0,0-2.03,0,1.411,1.411,0,0,0,0,2.01l1.5,1.47-4.369,2.29a38.875,38.875,0,0,0-17.414,17.08l-0.179.35a1.407,1.407,0,0,0,.063,1.38,1.434,1.434,0,0,0,1.221.67h4.4m2.871,0h31.584m-22.97-2.83h-13.5a36.081,36.081,0,0,1,15.224-14.12c0.025-.02,5.432-2.85,5.457-2.86l5.425,2.84a0.057,0.057,0,0,1,.032.02,36.087,36.087,0,0,1,15.224,14.12h-13.5m-8.614,0h-2.871m8.614,0h-2.871m0,16.04h-2.872v-14.72h2.872v14.72Zm10.527,13.3H917.919v-14.53h23.544V1456Zm-20.672-2.83h17.8v-8.87h-17.8v8.87Z" transform="translate(-905 -1401)"/>
</svg>
