<svg xmlns="http://www.w3.org/2000/svg" width="45" height="43" viewBox="0 0 45 43">
  <metadata><?xpacket begin="﻿" id="W5M0MpCehiHzreSzNTczkc9d"?>
<x:xmpmeta xmlns:x="adobe:ns:meta/" x:xmptk="Adobe XMP Core 5.6-c142 79.160924, 2017/07/13-01:06:39        ">
   <rdf:RDF xmlns:rdf="http://www.w3.org/1999/02/22-rdf-syntax-ns#">
      <rdf:Description rdf:about=""/>
   </rdf:RDF>
</x:xmpmeta>
                                                                                                    
                                                                                                    
                                                                                                    
                                                                                                    
                                                                                                    
                                                                                                    
                                                                                                    
                                                                                                    
                                                                                                    
                                                                                                    
                                                                                                    
                                                                                                    
                                                                                                    
                                                                                                    
                                                                                                    
                                                                                                    
                                                                                                    
                                                                                                    
                                                                                                    
                                                                                                    
                           
<?xpacket end="w"?></metadata>
<defs>
    <style>
      .cls-1 {
        fill: #23428f;
        fill-rule: evenodd;
      }
    </style>
  </defs>
  <path id="facilty02" class="cls-1" d="M922,1306.52h4.9a0.875,0.875,0,0,0,.879-0.87v-4.7a0.869,0.869,0,0,0-.879-0.87H922a0.869,0.869,0,0,0-.879.87v4.7A0.875,0.875,0,0,0,922,1306.52Zm0.879-4.7h3.147v2.96H922.88v-2.96h0Zm9.214,4.7H937a0.875,0.875,0,0,0,.879-0.87v-4.7a0.869,0.869,0,0,0-.879-0.87h-4.9a0.869,0.869,0,0,0-.879.87v4.7A0.875,0.875,0,0,0,932.094,1306.52Zm0.879-4.7h3.147v2.96h-3.147v-2.96ZM922,1298.2h4.9a0.875,0.875,0,0,0,.879-0.87v-4.71a0.875,0.875,0,0,0-.879-0.87H922a0.875,0.875,0,0,0-.879.87v4.71A0.875,0.875,0,0,0,922,1298.2Zm0.879-4.71h3.147v2.97H922.88v-2.97h0Zm9.214,4.71H937a0.875,0.875,0,0,0,.879-0.87v-4.71a0.875,0.875,0,0,0-.879-0.87h-4.9a0.875,0.875,0,0,0-.879.87v4.71A0.875,0.875,0,0,0,932.094,1298.2Zm0.879-4.71h3.147v2.97h-3.147v-2.97ZM922,1289.87h4.9a0.875,0.875,0,0,0,.879-0.87v-4.71a0.875,0.875,0,0,0-.879-0.87H922a0.875,0.875,0,0,0-.879.87V1289A0.875,0.875,0,0,0,922,1289.87Zm0.879-4.71h3.147v2.97H922.88v-2.97h0Zm9.214,4.71H937a0.875,0.875,0,0,0,.879-0.87v-4.71a0.875,0.875,0,0,0-.879-0.87h-4.9a0.875,0.875,0,0,0-.879.87V1289A0.875,0.875,0,0,0,932.094,1289.87Zm0.879-4.71h3.147v2.97h-3.147v-2.97Zm-14.052,4.07,0.025-.01a0.868,0.868,0,0,0,.356-1.18,0.884,0.884,0,0,0-1.191-.35l-0.019.01h-0.006a0.869,0.869,0,0,0-.356,1.18,0.884,0.884,0,0,0,.362.36,0.973,0.973,0,0,0,.412.1A0.8,0.8,0,0,0,918.921,1289.23Zm32.2,28.03h-1.8a3.555,3.555,0,0,0-3.583-3.21c-0.111,0-.221.01-0.331,0.02a4.538,4.538,0,0,0-3.555-1.7h-0.066v-30.3a2.649,2.649,0,0,0-2.661-2.63h-0.644v-1.85a0.877,0.877,0,0,0-.762-0.86l-5.471-.72a0.88,0.88,0,0,0-.7.21,0.849,0.849,0,0,0-.3.65v2.57h-11.38a2.649,2.649,0,0,0-2.661,2.63v2.58a0.875,0.875,0,0,0,.879.87h0a0.875,0.875,0,0,0,.879-0.87v-2.58a0.9,0.9,0,0,1,.9-0.89h19.252a0.9,0.9,0,0,1,.9.89v35.19h-3.675v-7.91a0.875,0.875,0,0,0-.879-0.87H923.524a0.874,0.874,0,0,0-.878.87v7.91h-3.675V1292.2a0.875,0.875,0,0,0-.879-0.87h0a0.875,0.875,0,0,0-.879.87v20.17h-0.066a4.538,4.538,0,0,0-3.555,1.7c-0.11-.01-0.22-0.02-0.331-0.02a3.555,3.555,0,0,0-3.583,3.21h-1.8a0.87,0.87,0,1,0,0,1.74h43.242A0.87,0.87,0,1,0,951.121,1317.26Zm-18.11-37.82v-1.58l3.713,0.5v1.08h-3.713Zm-21.565,37.82a1.814,1.814,0,0,1,1.815-1.47,1.755,1.755,0,0,1,.508.07,0.883,0.883,0,0,0,1-.41,2.737,2.737,0,0,1,2.383-1.34h0.066v3.15h-5.767Zm12.957,0v-7.04h4.218v7.04H924.4Zm5.976,0v-7.04H934.6v7.04h-4.218Zm11.408,0v-3.15h0.066a2.737,2.737,0,0,1,2.383,1.34,0.883,0.883,0,0,0,1,.41,1.755,1.755,0,0,1,.508-0.07,1.814,1.814,0,0,1,1.815,1.47h-5.767Z" transform="translate(-907 -1276)"/>
</svg>
