<svg xmlns="http://www.w3.org/2000/svg" width="50" height="50" viewBox="0 0 50 50">
  <metadata><?xpacket begin="﻿" id="W5M0MpCehiHzreSzNTczkc9d"?>
<x:xmpmeta xmlns:x="adobe:ns:meta/" x:xmptk="Adobe XMP Core 5.6-c142 79.160924, 2017/07/13-01:06:39        ">
   <rdf:RDF xmlns:rdf="http://www.w3.org/1999/02/22-rdf-syntax-ns#">
      <rdf:Description rdf:about=""/>
   </rdf:RDF>
</x:xmpmeta>
                                                                                                    
                                                                                                    
                                                                                                    
                                                                                                    
                                                                                                    
                                                                                                    
                                                                                                    
                                                                                                    
                                                                                                    
                                                                                                    
                                                                                                    
                                                                                                    
                                                                                                    
                                                                                                    
                                                                                                    
                                                                                                    
                                                                                                    
                                                                                                    
                                                                                                    
                                                                                                    
                           
<?xpacket end="w"?></metadata>
<defs>
    <style>
      .cls-1 {
        fill: #23428f;
        fill-rule: evenodd;
      }
    </style>
  </defs>
  <path id="facilty05" class="cls-1" d="M756.408,1406a1.392,1.392,0,0,1,.695,1.38c-0.018,3.76,0,7.52-.015,11.28a5.893,5.893,0,0,1-3.3,5.55,0.6,0.6,0,0,0-.31.67q0,13.965,0,27.92a2.965,2.965,0,0,1-1.723,2.92c-0.231.11-.479,0.19-0.72,0.28h-0.976c-2-.82-2.444-1.49-2.444-3.69q0-7.74,0-15.47,0-6,0-12.01a0.533,0.533,0,0,0-.266-0.6,5.978,5.978,0,0,1-3.348-5.72q0.012-5.565-.007-11.13a1.388,1.388,0,0,1,.693-1.38h0.585a1.39,1.39,0,0,1,.693,1.38c-0.019,3.2-.009,6.41-0.009,9.61v0.5h1.755v-0.55c0-3.18.012-6.37-.007-9.56a1.39,1.39,0,0,1,.693-1.38h0.586a1.382,1.382,0,0,1,.693,1.38c-0.02,3.2-.01,6.41-0.01,9.61v0.51h1.758v-0.55c0-3.19.01-6.38-.009-9.57a1.388,1.388,0,0,1,.692-1.38H752.7a1.39,1.39,0,0,1,.693,1.38c-0.02,3.21-.009,6.41-0.009,9.61v0.51h1.757v-0.56c0-3.18.01-6.37-.009-9.56a1.388,1.388,0,0,1,.693-1.38h0.585Zm-10.4,13.49a4.018,4.018,0,0,0,2.552,3.15,1.209,1.209,0,0,1,1.013,1.48q0,14.235,0,28.46a4.016,4.016,0,0,0,.018.58,0.962,0.962,0,0,0,1.917.01,2.944,2.944,0,0,0,.017-0.44v-20.55c0-2.72,0-5.43,0-8.15a1.135,1.135,0,0,1,.917-1.35,4.831,4.831,0,0,0,.745-0.35,3.951,3.951,0,0,0,1.881-2.84h-9.059ZM790.582,1456a2.967,2.967,0,0,1-1.993-1.43,4.583,4.583,0,0,1-.429-1.77c-0.035-4.56-.023-9.12-0.015-13.67a0.954,0.954,0,0,0-.314-0.77c-0.554-.52-1.092-1.07-1.618-1.62a4.9,4.9,0,0,1-1.388-3.45c-0.011-4.31-.075-8.62.018-12.93a17.047,17.047,0,0,1,7.451-14.06c0.143-.1.291-0.2,0.437-0.3H794v47.56c-0.1.25-.184,0.51-0.3,0.76a3.184,3.184,0,0,1-2.144,1.68h-0.977Zm1.465-47.01c-0.141.13-.2,0.17-0.26,0.23a15.272,15.272,0,0,0-5.006,11.5c-0.03,4.1,0,8.2-.011,12.3a3.48,3.48,0,0,0,1.089,2.62c0.56,0.54,1.093,1.11,1.663,1.65a1.714,1.714,0,0,1,.581,1.38c-0.025,1.64-.009,3.28-0.009,4.93q0,4.635,0,9.27a0.99,0.99,0,1,0,1.948,0c0-.08,0-0.16,0-0.24q0-18.555,0-37.1v-6.54Zm-9.18,22a13.863,13.863,0,1,1-13.856-13.86A13.918,13.918,0,0,1,782.867,1430.99Zm-13.917,11.92a11.91,11.91,0,1,0-11.856-11.99A11.947,11.947,0,0,0,768.95,1442.91Zm-0.559,6.75a18.221,18.221,0,0,1-9.317-2.87,0.991,0.991,0,0,1-.461-1.4,0.979,0.979,0,0,1,1.449-.27,16.1,16.1,0,0,0,5.482,2.21,16.463,16.463,0,0,0,16.3-5.65c0.107-.12.208-0.25,0.325-0.36a0.955,0.955,0,0,1,1.358-.07,0.924,0.924,0,0,1,.078,1.35,26.682,26.682,0,0,1-2.173,2.31A18.883,18.883,0,0,1,768.391,1449.66Zm0.663-37.32a18.605,18.605,0,0,1,13.358,5.69,1,1,0,0,1,.105,1.47,0.963,0.963,0,0,1-1.437-.05,19.083,19.083,0,0,0-3.544-2.81,16.6,16.6,0,0,0-9.953-2.27,17.039,17.039,0,0,0-5.935,1.61,1.443,1.443,0,0,1-1.01.11,1.293,1.293,0,0,1-.587-0.8,0.854,0.854,0,0,1,.59-0.97c1.048-.43,2.091-0.89,3.17-1.23A17.2,17.2,0,0,1,769.054,1412.34ZM757.5,1443.55a0.949,0.949,0,0,1-.961.95,1.021,1.021,0,0,1-1-.99,1,1,0,0,1,1-.98A1.026,1.026,0,0,1,757.5,1443.55Zm2.54-13.18a8.9,8.9,0,0,1,5.247-7.53,1,1,0,0,1,1.437.35,0.972,0.972,0,0,1-.579,1.39,6.9,6.9,0,0,0-3.737,4.1,11.244,11.244,0,0,0-.411,2.14,1.046,1.046,0,0,1-1.058,1.14C760.337,1431.91,760.008,1431.45,760.038,1430.37Zm8.943-8.35a1.008,1.008,0,0,1,.992,1,1,1,0,0,1-.991.95,0.965,0.965,0,0,1-.978-1A0.983,0.983,0,0,1,768.981,1422.02Z" transform="translate(-744 -1406)"/>
</svg>
