<svg xmlns="http://www.w3.org/2000/svg" width="42" height="33" viewBox="0 0 42 33">
  <metadata><?xpacket begin="﻿" id="W5M0MpCehiHzreSzNTczkc9d"?>
<x:xmpmeta xmlns:x="adobe:ns:meta/" x:xmptk="Adobe XMP Core 5.6-c142 79.160924, 2017/07/13-01:06:39        ">
   <rdf:RDF xmlns:rdf="http://www.w3.org/1999/02/22-rdf-syntax-ns#">
      <rdf:Description rdf:about=""/>
   </rdf:RDF>
</x:xmpmeta>
                                                                                                    
                                                                                                    
                                                                                                    
                                                                                                    
                                                                                                    
                                                                                                    
                                                                                                    
                                                                                                    
                                                                                                    
                                                                                                    
                                                                                                    
                                                                                                    
                                                                                                    
                                                                                                    
                                                                                                    
                                                                                                    
                                                                                                    
                                                                                                    
                                                                                                    
                                                                                                    
                           
<?xpacket end="w"?></metadata>
<defs>
    <style>
      .cls-1 {
        fill: #23428f;
        fill-rule: evenodd;
      }
    </style>
  </defs>
  <path id="facilty04" class="cls-1" d="M1226,1310.87h-4.2v-26.81a0.694,0.694,0,0,0-.7-0.69h-6.3a0.694,0.694,0,0,0-.7.69v4.81h-4.2v-4.81a0.694,0.694,0,0,0-.7-0.69h-4.9a0.694,0.694,0,0,0-.7.69v3.44h-4.2a0.694,0.694,0,0,0-.7.69v2.06h-4.2v-7.56a0.694,0.694,0,0,0-.7-0.69h-5.6a0.694,0.694,0,0,0-.7.69v28.18H1184V1315h42v-4.13Zm-10.5,0v-2.06h4.9v2.06h-4.9Zm4.9-3.43h-4.9v-1.38h4.9v1.38Zm0-2.75h-4.9v-13.75h4.9v13.75Zm0-15.13h-4.9v-1.37h4.9v1.37Zm0-4.81v2.06h-4.9v-2.06h4.9Zm-6.3,5.5v20.62h-4.2v-20.62h4.2Zm-9.1-2.06v-0.69h3.5v13.75H1205v-13.06Zm0,14.43h3.5v5.5H1205v-5.5Zm0,6.88h3.5v1.37H1205v-1.37Zm3.5-24.75v1.37H1205v-1.37h3.5Zm-8.4,4.12h3.5v22h-3.5v-22Zm-7-.68h-4.2v-1.38h4.2v1.38Zm5.6,19.93h-4.2v-13.75h4.2v13.75Zm-4.2,1.38h4.2v1.37h-4.2v-1.37Zm4.2-17.88V1293h-4.2v-1.38h4.2Zm-5.6-8.25v2.07h-4.2v-2.07h4.2Zm-4.2,6.19h4.2v21.31h-4.2v-21.31Zm35.7,24.06h-39.2v-1.37h39.2v1.37ZM1211.3,1293h1.4v15.12h-1.4V1293Zm-15.4,4.12h1.4v8.25h-1.4v-8.25Z" transform="translate(-1184 -1282)"/>
</svg>
