<svg xmlns="http://www.w3.org/2000/svg" width="42.87" height="47.78" viewBox="0 0 42.87 47.78">
  <metadata><?xpacket begin="﻿" id="W5M0MpCehiHzreSzNTczkc9d"?>
<x:xmpmeta xmlns:x="adobe:ns:meta/" x:xmptk="Adobe XMP Core 5.6-c142 79.160924, 2017/07/13-01:06:39        ">
   <rdf:RDF xmlns:rdf="http://www.w3.org/1999/02/22-rdf-syntax-ns#">
      <rdf:Description rdf:about=""/>
   </rdf:RDF>
</x:xmpmeta>
                                                                                                    
                                                                                                    
                                                                                                    
                                                                                                    
                                                                                                    
                                                                                                    
                                                                                                    
                                                                                                    
                                                                                                    
                                                                                                    
                                                                                                    
                                                                                                    
                                                                                                    
                                                                                                    
                                                                                                    
                                                                                                    
                                                                                                    
                                                                                                    
                                                                                                    
                                                                                                    
                           
<?xpacket end="w"?></metadata>
<defs>
    <style>
      .cls-1 {
        fill: #23428f;
        fill-rule: evenodd;
      }
    </style>
  </defs>
  <path class="cls-1" d="M1176.82,1399.96h-37.98a2.179,2.179,0,0,0-2.18,2.18,2.136,2.136,0,0,0,1.09,1.86v25.02c0.58-.54,1.3-1.19,2.17-1.99v-22.72h35.81v23.89h-27.97c-0.72.79-1.39,1.52-1.98,2.17h1.91l-3.9,14.64a2.169,2.169,0,1,0,4.19,1.12l3.92-14.68h11.85l3.92,14.68a2.169,2.169,0,1,0,4.19-1.12l-3.9-14.64h8.86a1.084,1.084,0,0,0,1.08-1.09V1404a2.136,2.136,0,0,0,1.09-1.86A2.177,2.177,0,0,0,1176.82,1399.96Zm-17.37,24.17v-8.15a2.17,2.17,0,1,0-4.34,0v8.15A2.17,2.17,0,1,0,1159.45,1424.13Zm7.06,0v-15.75a2.17,2.17,0,1,0-4.34,0v15.74A2.17,2.17,0,1,0,1166.51,1424.13Zm7.05,0v-11.41a2.17,2.17,0,1,0-4.34,0v11.41A2.17,2.17,0,1,0,1173.56,1424.13Zm-21.68-4.41a0.544,0.544,0,0,0-.75,0s-14.53,13.29-14.6,13.36a1.414,1.414,0,0,0,2,2c0.07-.07,13.35-14.61,13.35-14.61A0.525,0.525,0,0,0,1151.88,1419.72Z" transform="translate(-1136.13 -1399.97)"/>
</svg>
