<svg xmlns="http://www.w3.org/2000/svg" width="37" height="38" viewBox="0 0 37 38">
  <metadata><?xpacket begin="﻿" id="W5M0MpCehiHzreSzNTczkc9d"?>
<x:xmpmeta xmlns:x="adobe:ns:meta/" x:xmptk="Adobe XMP Core 5.6-c142 79.160924, 2017/07/13-01:06:39        ">
   <rdf:RDF xmlns:rdf="http://www.w3.org/1999/02/22-rdf-syntax-ns#">
      <rdf:Description rdf:about=""/>
   </rdf:RDF>
</x:xmpmeta>
                                                                                                    
                                                                                                    
                                                                                                    
                                                                                                    
                                                                                                    
                                                                                                    
                                                                                                    
                                                                                                    
                                                                                                    
                                                                                                    
                                                                                                    
                                                                                                    
                                                                                                    
                                                                                                    
                                                                                                    
                                                                                                    
                                                                                                    
                                                                                                    
                                                                                                    
                                                                                                    
                           
<?xpacket end="w"?></metadata>
<defs>
    <style>
      .cls-1 {
        fill: #23428f;
        fill-rule: evenodd;
      }
    </style>
  </defs>
  <path class="cls-1" d="M1059.83,1297.49h13.95a3.318,3.318,0,0,0,3.33-3.31v-7.24a3.32,3.32,0,0,0-3.33-3.32h-13.95a3.323,3.323,0,0,0-3.34,3.32v7.24A3.32,3.32,0,0,0,1059.83,1297.49Zm-1.52-10.55a1.511,1.511,0,0,1,1.52-1.51h13.95a1.5,1.5,0,0,1,1.51,1.51v7.24a1.5,1.5,0,0,1-1.51,1.5h-13.95a1.509,1.509,0,0,1-1.52-1.5v-7.24Zm2.62,14.02c-0.09-.23-0.16-0.4-0.21-0.54a2.18,2.18,0,0,0-.2-0.37,0.893,0.893,0,0,0-.32-0.29,1.057,1.057,0,0,0-.5-0.11,1,1,0,0,0-.48.11,0.818,0.818,0,0,0-.32.29,2.346,2.346,0,0,0-.23.45c-0.07.18-.13,0.34-0.18,0.47l-1.79,4.5q-0.1.27-.15,0.42a1.04,1.04,0,0,0-.05.29,0.619,0.619,0,0,0,.2.44,0.68,0.68,0,0,0,.48.19,0.539,0.539,0,0,0,.45-0.18,3.085,3.085,0,0,0,.33-0.7l0.33-.89h2.84l0.33,0.87c0.04,0.11.1,0.23,0.16,0.37a1.793,1.793,0,0,0,.17.32,0.585,0.585,0,0,0,.2.15,0.525,0.525,0,0,0,.28.06,0.627,0.627,0,0,0,.49-0.2,0.582,0.582,0,0,0,.2-0.44,2.288,2.288,0,0,0-.21-0.74Zm-2.27,3.03,1.04-2.86,1.05,2.86h-2.09Zm9.01-4.22h-4.49a0.836,0.836,0,0,0-.53.15,0.551,0.551,0,0,0-.18.43,0.545,0.545,0,0,0,.18.42,0.78,0.78,0,0,0,.53.15h1.54v5.04a0.908,0.908,0,0,0,.2.64,0.664,0.664,0,0,0,.51.21,0.644,0.644,0,0,0,.51-0.21,0.907,0.907,0,0,0,.19-0.64v-5.04h1.54a0.828,0.828,0,0,0,.54-0.15,0.545,0.545,0,0,0,.18-0.42,0.557,0.557,0,0,0-.17-0.42A0.786,0.786,0,0,0,1067.67,1299.77Zm7.34,0h-0.44a1.612,1.612,0,0,0-.57.07,0.428,0.428,0,0,0-.26.25,5.132,5.132,0,0,0-.2.6l-1.01,3.8-1.01-3.8a5.132,5.132,0,0,0-.2-0.6,0.428,0.428,0,0,0-.26-0.25,1.64,1.64,0,0,0-.58-0.07h-0.43a1.165,1.165,0,0,0-.64.15,0.7,0.7,0,0,0-.24.62v5.48a0.861,0.861,0,0,0,.18.6,0.6,0.6,0,0,0,.46.19,0.618,0.618,0,0,0,.48-0.19,0.878,0.878,0,0,0,.18-0.6v-4.78l1.11,4.41q0.06,0.225.12,0.42a1.657,1.657,0,0,0,.14.37,0.87,0.87,0,0,0,.27.27,0.816,0.816,0,0,0,.42.1,0.726,0.726,0,0,0,.51-0.16,0.839,0.839,0,0,0,.26-0.37q0.06-.195.18-0.63l1.11-4.41v4.78a0.878,0.878,0,0,0,.18.6,0.676,0.676,0,0,0,.94,0,0.878,0.878,0,0,0,.18-0.6v-5.48a0.7,0.7,0,0,0-.24-0.62A1.189,1.189,0,0,0,1075.01,1299.77Zm-4.83-8.91h3.04a0.905,0.905,0,0,0,0-1.81h-3.04A0.905,0.905,0,1,0,1070.18,1290.86Zm0,3.01h3.04a0.905,0.905,0,0,0,0-1.81h-3.04A0.905,0.905,0,1,0,1070.18,1293.87Zm-10.31-3.01h3.04a0.905,0.905,0,0,0,0-1.81h-3.04A0.905,0.905,0,1,0,1059.87,1290.86Zm0,3.01h3.04a0.905,0.905,0,0,0,0-1.81h-3.04A0.905,0.905,0,1,0,1059.87,1293.87Zm21.79,15.08h-0.68a3.19,3.19,0,0,0,.38-1.51v-24.12a3.32,3.32,0,0,0-3.33-3.32h-23.06a3.32,3.32,0,0,0-3.33,3.32v24.12a3.19,3.19,0,0,0,.38,1.51h-0.69a3.327,3.327,0,0,0-3.33,3.32v2.41a3.32,3.32,0,0,0,3.33,3.32h30.33a3.323,3.323,0,0,0,3.34-3.32v-2.41A3.329,3.329,0,0,0,1081.66,1308.95Zm-28.2-25.63a1.515,1.515,0,0,1,1.51-1.51h23.06a1.515,1.515,0,0,1,1.51,1.51v24.12a1.509,1.509,0,0,1-1.51,1.51h-23.06a1.509,1.509,0,0,1-1.51-1.51v-24.12Zm29.72,31.36a1.511,1.511,0,0,1-1.52,1.51h-30.33a1.509,1.509,0,0,1-1.51-1.51v-2.41a1.515,1.515,0,0,1,1.51-1.51h30.33a1.517,1.517,0,0,1,1.52,1.51v2.41Z" transform="translate(-1048 -1280)"/>
</svg>
