<svg xmlns="http://www.w3.org/2000/svg" width="55" height="54" viewBox="0 0 55 54">
  <metadata><?xpacket begin="﻿" id="W5M0MpCehiHzreSzNTczkc9d"?>
<x:xmpmeta xmlns:x="adobe:ns:meta/" x:xmptk="Adobe XMP Core 5.6-c142 79.160924, 2017/07/13-01:06:39        ">
   <rdf:RDF xmlns:rdf="http://www.w3.org/1999/02/22-rdf-syntax-ns#">
      <rdf:Description rdf:about=""/>
   </rdf:RDF>
</x:xmpmeta>
                                                                                                    
                                                                                                    
                                                                                                    
                                                                                                    
                                                                                                    
                                                                                                    
                                                                                                    
                                                                                                    
                                                                                                    
                                                                                                    
                                                                                                    
                                                                                                    
                                                                                                    
                                                                                                    
                                                                                                    
                                                                                                    
                                                                                                    
                                                                                                    
                                                                                                    
                                                                                                    
                           
<?xpacket end="w"?></metadata>
<defs>
    <style>
      .cls-1 {
        fill: #23428f;
        fill-rule: evenodd;
      }
    </style>
  </defs>
  <path id="facilty01" class="cls-1" d="M742,1323.17h1.833V1325H742v-1.83Zm3.667,0h6.416V1325h-6.416v-1.83Zm-1.834-49.42h1.834v1.83h-1.834v-1.83Zm3.667,0h10.083v1.83H747.5v-1.83Zm19.25,44.84h10.083v1.83H766.75v-1.83Zm19.807,4.58h2.216V1325h-2.216v-1.83Zm3.513,0H797V1325H790.07v-1.83ZM752.083,1271h5.5v1.83h-5.5V1271Zm39.417,3.66H797v1.83h-5.5v-1.83Zm-20.167,11.9a0.915,0.915,0,0,0-.916.91v10.99a0.915,0.915,0,0,0,.916.91h4.584a0.915,0.915,0,0,0,.916-0.91v-10.99a0.915,0.915,0,0,0-.916-0.91h-4.584ZM775,1297.54h-2.75v-9.15H775v9.15Zm4.583-10.98a0.915,0.915,0,0,0-.916.91v10.99a0.915,0.915,0,0,0,.916.91h4.584a0.915,0.915,0,0,0,.916-0.91v-10.99a0.915,0.915,0,0,0-.916-0.91h-4.584Zm3.667,10.98H780.5v-9.15h2.75v9.15Zm-20.167-10.98a0.915,0.915,0,0,0-.916.91v10.99a0.915,0.915,0,0,0,.916.91h4.584a0.915,0.915,0,0,0,.916-0.91v-10.99a0.915,0.915,0,0,0-.916-0.91h-4.584Zm3.667,10.98H764v-9.15h2.75v9.15Zm-11.917-10.98a0.915,0.915,0,0,0-.916.91v10.99a0.915,0.915,0,0,0,.916.91h4.584a0.915,0.915,0,0,0,.916-0.91v-10.99a0.915,0.915,0,0,0-.916-0.91h-4.584Zm3.667,10.98h-2.75v-9.15h2.75v9.15Zm-11.917-10.98a0.915,0.915,0,0,0-.916.91v10.99a0.915,0.915,0,0,0,.916.91h4.584a0.915,0.915,0,0,0,.916-0.91v-10.99a0.915,0.915,0,0,0-.916-0.91h-4.584Zm3.667,10.98H747.5v-9.15h2.75v9.15Zm-7.333,13.73H748.5a5.495,5.495,0,0,0,10.835,0h15.748a5.495,5.495,0,0,0,10.835,0h10.166a0.915,0.915,0,0,0,.917-0.91v-2.75h-1.833v1.83h-9.25a5.495,5.495,0,0,0-10.835,0H759.334a5.495,5.495,0,0,0-10.835,0h-4.666v-24.71h49.042l2.292,3.05v0.61H797v-0.92a0.887,0.887,0,0,0-.183-0.54l-2.75-3.67a0.913,0.913,0,0,0-.734-0.36H742.917a0.915,0.915,0,0,0-.917.91v26.55A0.915,0.915,0,0,0,742.917,1311.27Zm37.583-4.58a3.665,3.665,0,1,1-3.667,3.67A3.667,3.667,0,0,1,780.5,1306.69Zm-26.583,0a3.665,3.665,0,1,1-3.667,3.67A3.666,3.666,0,0,1,753.917,1306.69ZM753,1309.44h1.833v1.83H753v-1.83Zm26.583,0h1.834v1.83h-1.834v-1.83Zm8.25-22.88a0.915,0.915,0,0,0-.916.91v19.22a0.917,0.917,0,0,0,.916.92h4.584a0.917,0.917,0,0,0,.916-0.92v-19.22a0.915,0.915,0,0,0-.916-0.91h-4.584Zm3.667,19.22h-2.75v-17.39h2.75v17.39Zm3.667-15.56H797v15.56h-1.833v-15.56Z" transform="translate(-742 -1271)"/>
</svg>
