<svg xmlns="http://www.w3.org/2000/svg" width="51.97" height="52" viewBox="0 0 51.97 52">
  <metadata><?xpacket begin="﻿" id="W5M0MpCehiHzreSzNTczkc9d"?>
<x:xmpmeta xmlns:x="adobe:ns:meta/" x:xmptk="Adobe XMP Core 5.6-c142 79.160924, 2017/07/13-01:06:39        ">
   <rdf:RDF xmlns:rdf="http://www.w3.org/1999/02/22-rdf-syntax-ns#">
      <rdf:Description rdf:about=""/>
   </rdf:RDF>
</x:xmpmeta>
                                                                                                    
                                                                                                    
                                                                                                    
                                                                                                    
                                                                                                    
                                                                                                    
                                                                                                    
                                                                                                    
                                                                                                    
                                                                                                    
                                                                                                    
                                                                                                    
                                                                                                    
                                                                                                    
                                                                                                    
                                                                                                    
                                                                                                    
                                                                                                    
                                                                                                    
                                                                                                    
                           
<?xpacket end="w"?></metadata>
<defs>
    <style>
      .cls-1 {
        fill: #23428f;
        fill-rule: evenodd;
      }
    </style>
  </defs>
  <path id="facilty07" class="cls-1" d="M1079.88,1437.55a16.184,16.184,0,0,1-2.1,1.69,10.313,10.313,0,0,0-4.51,8.24h-1.93v-8.43h1.42a1.015,1.015,0,0,0,0-2.03h-1.42V1435h1.42a1.015,1.015,0,0,0,0-2.03h-1.42v-2.03h1.42a1.015,1.015,0,0,0,0-2.03h-1.42v-2.03h1.42a1.015,1.015,0,0,0,0-2.03h-2.23a0.777,0.777,0,0,0-.16.02,0.433,0.433,0,0,0-.05-0.01h-2.33v-2.03h4.77a1.015,1.015,0,0,0,0-2.03h-4.77v-2.03h8.02v16.83a1.015,1.015,0,1,0,2.03,0v-17.84a1.024,1.024,0,0,0-1.02-1.02h-10.05a1.024,1.024,0,0,0-1.02,1.02v7.1h-5.68a1.024,1.024,0,0,0-1.02,1.02v9.74a1.02,1.02,0,0,0,2.04,0v-8.73h8.02v20.59h-4.58a10.419,10.419,0,0,0-4.58-8.29,15.935,15.935,0,0,1-1.88-1.51,1.024,1.024,0,0,0-1.44.05,1.011,1.011,0,0,0,.05,1.43,17.526,17.526,0,0,0,2.13,1.71,8.386,8.386,0,0,1,3.69,6.91v6.2a1.018,1.018,0,0,0,1.02,1.02h10.56a1.018,1.018,0,0,0,1.02-1.02v-6.16a8.3,8.3,0,0,1,3.61-6.9,17.381,17.381,0,0,0,2.37-1.91A1.011,1.011,0,0,0,1079.88,1437.55Zm-6.61,15.42h-8.53v-3.45h8.53v3.45Zm-18.71-35.26a0.98,0.98,0,0,0,.56.18,1.032,1.032,0,0,0,.85-0.45l0.02-.03a1.023,1.023,0,0,0-.27-1.41,1,1,0,0,0-1.41.27l-0.03.03A1.014,1.014,0,0,0,1054.56,1417.71Zm14.44-9.23h-0.04a17.674,17.674,0,0,0-12.23,4.92,1.015,1.015,0,1,0,1.41,1.46,15.675,15.675,0,0,1,10.83-4.35H1069a15.685,15.685,0,0,1,13.2,7.19,1.012,1.012,0,0,0,1.7-1.1A17.662,17.662,0,0,0,1069,1408.48Zm24.29,16.39h0l-5.18-6.81a1.01,1.01,0,0,0-1.61,0l-5.2,6.77a0.219,0.219,0,0,0-.03.05,7.954,7.954,0,0,0-1.71,4.93,7.711,7.711,0,0,0,10.07,7.49,1.025,1.025,0,0,0,.65-1.28,1.012,1.012,0,0,0-1.28-.65,5.525,5.525,0,0,1-1.72.27,5.776,5.776,0,0,1-5.69-5.83,5.938,5.938,0,0,1,1.31-3.72l0.06-.09,4.34-5.65,4.36,5.73a0.138,0.138,0,0,1,.03.04,5.928,5.928,0,0,1,1.14,4.96,1.019,1.019,0,0,0,1.99.44,8.209,8.209,0,0,0,.18-1.71A7.982,7.982,0,0,0,1093.29,1424.87Zm-1.84,8.9-0.03.03a1.019,1.019,0,1,0,1.5,1.38l0.03-.04A1.016,1.016,0,1,0,1091.45,1433.77Zm-0.82-4.98a1.009,1.009,0,0,0-1.01,1.02,2.376,2.376,0,0,1-2.34,2.4,1.015,1.015,0,0,0,0,2.03,4.407,4.407,0,0,0,4.37-4.43A1.018,1.018,0,0,0,1090.63,1428.79Zm-34.15-3.38-5.03-7.27a1.019,1.019,0,0,0-.87-0.48,1,1,0,0,0-.87.5l-5.02,7.25a9.429,9.429,0,0,0-1.58,6.84,7.869,7.869,0,0,0,6.41,6.55v0.79a1.015,1.015,0,0,0,2.03,0v-0.77a7.878,7.878,0,0,0,6.51-6.57A9.429,9.429,0,0,0,1056.48,1425.41Zm-0.79,2.87-4.14,4.14v-10.57l3.26,4.71A7.361,7.361,0,0,1,1055.69,1428.28Zm-6.17-.58-2.33-2.33,2.33-3.37v5.7Zm-4.4,4.24a7.435,7.435,0,0,1,.91-4.85l3.49,3.48v6.16A5.78,5.78,0,0,1,1045.12,1431.94Zm10.93,0a5.775,5.775,0,0,1-4.5,4.81v-1.45l4.59-4.59A8.484,8.484,0,0,1,1056.05,1431.94Zm12.95-25.05a1.016,1.016,0,0,0,1.02-1.01v-1.86a1.015,1.015,0,1,0-2.03,0v1.86A1.007,1.007,0,0,0,1069,1406.89Zm-11.11,2.39a1.015,1.015,0,0,0,.72.3,0.976,0.976,0,0,0,.71-0.3,1,1,0,0,0,0-1.43l-2.13-2.13a1,1,0,0,0-1.43,0,1.014,1.014,0,0,0,0,1.44Zm21.55,0.26a1.015,1.015,0,0,0,.72-0.3l2.12-2.11a1.032,1.032,0,0,0,0-1.44,1.014,1.014,0,0,0-1.44,0l-2.11,2.12A1.015,1.015,0,0,0,1079.44,1409.54Zm-12.48,21.69a1.007,1.007,0,0,0,1.01-1.01v-0.64a1.015,1.015,0,1,0-2.03,0v0.64A1.016,1.016,0,0,0,1066.96,1431.23Zm-3.33,0a1.016,1.016,0,0,0,1.02-1.01v-0.64a1.015,1.015,0,1,0-2.03,0v0.64A1.007,1.007,0,0,0,1063.63,1431.23Zm2.31,2.98a1.015,1.015,0,0,0,2.03,0v-0.64a1.015,1.015,0,1,0-2.03,0v0.64Zm-3.32,0a1.015,1.015,0,0,0,2.03,0v-0.64a1.015,1.015,0,1,0-2.03,0v0.64Zm3.32,3.98a1.015,1.015,0,1,0,2.03,0v-0.64a1.015,1.015,0,0,0-2.03,0v0.64Zm-3.32,0a1.015,1.015,0,1,0,2.03,0v-0.64a1.015,1.015,0,0,0-2.03,0v0.64Z" transform="translate(-1043.03 -1403)"/>
</svg>
