<svg xmlns="http://www.w3.org/2000/svg" width="18.031" height="9" viewBox="0 0 18.031 9">
  <metadata><?xpacket begin="﻿" id="W5M0MpCehiHzreSzNTczkc9d"?>
<x:xmpmeta xmlns:x="adobe:ns:meta/" x:xmptk="Adobe XMP Core 5.6-c142 79.160924, 2017/07/13-01:06:39        ">
   <rdf:RDF xmlns:rdf="http://www.w3.org/1999/02/22-rdf-syntax-ns#">
      <rdf:Description rdf:about=""/>
   </rdf:RDF>
</x:xmpmeta>
                                                                                                    
                                                                                                    
                                                                                                    
                                                                                                    
                                                                                                    
                                                                                                    
                                                                                                    
                                                                                                    
                                                                                                    
                                                                                                    
                                                                                                    
                                                                                                    
                                                                                                    
                                                                                                    
                                                                                                    
                                                                                                    
                                                                                                    
                                                                                                    
                                                                                                    
                                                                                                    
                           
<?xpacket end="w"?></metadata>
<defs>
    <style>
      .cls-1 {
        fill: #f3f3f3;
        fill-rule: evenodd;
      }
    </style>
  </defs>
  <path class="cls-1" d="M430.85,461.618h-15.7A1.139,1.139,0,0,1,414,460.494h0a1.139,1.139,0,0,1,1.148-1.123h15.7A1.139,1.139,0,0,1,432,460.494h0A1.139,1.139,0,0,1,430.85,461.618Zm-0.81-.328-3.451-3.377a1.111,1.111,0,0,1,0-1.589h0a1.17,1.17,0,0,1,1.624,0l3.45,3.377a1.109,1.109,0,0,1,0,1.589h0A1.167,1.167,0,0,1,430.04,461.29Zm1.623,0-3.45,3.378a1.17,1.17,0,0,1-1.624,0h0a1.112,1.112,0,0,1,0-1.59l3.451-3.378a1.17,1.17,0,0,1,1.623,0h0A1.11,1.11,0,0,1,431.663,461.288Z" transform="translate(-414 -456)"/>
</svg>
